<svg version="1.1" id="Layer_1" xmlns="http://www.w3.org/2000/svg" x="0" y="0" viewBox="0 0 550 500" xml:space="preserve"><style>.st0{fill:#fdaf4e}.st1{fill:#24071d}.st2{fill:#fff}.st3{opacity:.26;fill:#680000;enable-background:new}.st4{fill:#fbe1ca}.st6{fill:#404366}</style><path class="st0" d="M317.8 175.5c1.4-20.5 6-18.8 6-48.7v-4c-2.3-32.3-30.3-56.7-62.7-54.5-29.8 2.1-53.2 26.2-54.6 56-.2 0-.8 27-6.8 37-8.5 14.2 1.4 19.4 1.1 29.1s-9.8 11.8-10 24.8 9.6 22.1 9.6 22.1l118.2 1.1c24.1-31.3-2.3-41.5-.8-62.9z"/><path class="st1" d="M315.4 239c-2.7 0-7.3 0-15.2-.1-11.1-.1-25.9-.2-40.6-.4l-59.1-.6c-.2 0-.4-.1-.5-.2-.4-.4-10-9.5-9.8-22.6.1-7.2 3.1-11.3 5.7-14.8 2.1-2.9 4.2-5.7 4.4-10 .1-3.3-1-6-2.2-8.9-2.2-5.4-4.5-11 1.2-20.5 3.3-5.5 5.5-17.2 6.5-34.9.1-.8.1-1.3.1-1.7 1.4-32.8 29.2-58.2 62-56.8 30.2 1.3 54.6 25.1 56.7 55.3v4.1c0 17.7-1.6 24.5-3.2 31.1-1.5 5.8-2.4 11.7-2.8 17.6-.5 7.4 2.4 13.3 5.4 19.6 5.5 11.4 11.1 23.1-4.7 43.6-.3.1-.3.2-3.9.2zm-114.7-2.5c6.4.1 110.7 1.1 117.5 1.1 15-19.6 9.8-30.3 4.3-41.7-3-6.2-6-12.6-5.5-20.3.4-6 1.3-12 2.8-17.9 1.6-6.5 3.2-13.2 3.2-30.7v-4c-2.3-30.3-27.5-53.8-57.9-53.9h-.8c-30.7.4-55.7 24.7-57.1 55.4v.2c0 .2-.1.8-.1 1.6-1.1 17.9-3.3 29.9-6.8 35.6-5.3 8.9-3.3 13.9-1.1 19.2 1.2 2.9 2.4 5.9 2.3 9.5-.2 4.7-2.4 7.7-4.6 10.8-2.6 3.5-5.3 7.2-5.4 14-.1 11.2 7.8 19.7 9.2 21.1zm117.1-61z"/><path class="st1" d="M242.4 235.2c-1.4-3.1-3.2-5.9-5.4-8.4-2.7-3.4-5.2-6.6-6-11-.6-3.5-.3-7 1.1-10.3.7-1.4 1.6-2.8 2.7-4 1.1-1.2 2-2.6 2.8-4.1 2.5-4.9.6-8.9-1.3-12.9l-.1-.1c-1.1-2.1-1.9-4.3-2.3-6.6-.5-4.1 1.1-7.9 2.8-12 1.3-2.7 2.2-5.6 2.8-8.5 1-6.3 1.4-12.7 1.5-19.1.1-4.6.3-9.4.8-14.2l1.5.2c-.5 4.6-.6 9.4-.8 14 0 6.5-.5 12.9-1.5 19.3-.6 3-1.6 6-2.9 8.8-1.6 3.9-3.1 7.6-2.7 11.3.4 2.1 1.1 4.2 2.1 6.1v.1c1.8 3.9 4.1 8.7 1.3 14.2-.8 1.5-1.8 3-3 4.3-1 1.1-1.8 2.3-2.5 3.7-1.2 3-1.6 6.2-1 9.4.7 4 3.1 7.1 5.7 10.3 2.3 2.7 4.2 5.6 5.6 8.8l-1.2.7zm-19.9 2.7c-11.7-12.4-11.2-21.6-9.8-27.5.5-2 1.2-4 2-6l.1-.2c1.1-2.7 2-5.5 2.6-8.3.8-4.6-.5-8.6-1.8-12.5l-.6-2c-1.8-5.9-.3-11 1.3-16.4 1-3.2 1.8-6.5 2.2-9.9.4-5.2.3-10.4-.1-15.6-.5-5.1-.5-10.3-.1-15.4 1.1-10.1 6.6-17.9 12.4-26.2l2.3-3.3 1.2.9-2.4 3.3c-5.7 8.1-11.1 15.8-12.1 25.5-.4 5.1-.3 10.1.1 15.2.5 5.3.5 10.5.1 15.8-.4 3.4-1.2 6.8-2.2 10.1-1.5 5.2-2.9 10.1-1.3 15.5l.6 2c1.3 4.1 2.6 8.3 1.8 13.2-.6 3-1.5 5.8-2.6 8.6l-.1.2c-.8 1.9-1.4 3.8-2 5.8-2.2 8.9.7 17 9.4 26.1l-1 1.1zm80.4.2c-.6-4.2-1.2-8.6-.2-12.6.5-1.7 1.1-3.3 2-4.9l.1-.1c.5-1 1.1-2.1 1.6-3.2 4.8-11.6 2-21.4-1.1-32.6l-.3-1.1c-2.2-7.9-4.1-14.7-4-22.8.2-14.2 1.3-28.3 3.3-42.4l1.5.2c-2 14-3 28.1-3.3 42.2-.1 7.9 1.8 14.6 3.9 22.3l.3 1.1c3.2 11.6 6 21.5 1 33.6-.5 1.2-1.1 2.3-1.6 3.4l-.1.1c-.8 1.4-1.5 3-1.9 4.5-.9 3.7-.3 7.9.3 12l-1.5.3z"/><path class="st2" d="M287.4 216.1l-39.1.4 1.2-36h35.3z"/><path class="st1" d="M247.6 217.2l1.2-37.4 36.8-.1 2.6 37.2-40.6.3zm2.6-35.9l-1.1 34.4 37.4-.3-2.4-34.2-33.9.1z"/><path class="st2" d="M241.2 149.8c.8 6.1-2.1 14.2-6.9 14.8s-9.8-6.5-10.6-12.5 2.5-11.5 7.4-12.1 9.4 3.7 10.1 9.8z"/><path class="st1" d="M233.7 165.4c-2.3 0-4.7-1.4-6.8-4.1-2.1-2.7-3.4-5.8-3.9-9.1-.8-6.5 2.8-12.3 8-12.9 2.3-.3 4.6.4 6.4 1.8 2.6 2.2 4.3 5.3 4.7 8.6.6 4.4-.7 9.7-3.1 12.8-1.1 1.5-2.7 2.6-4.5 2.9-.3-.1-.6-.1-.8 0zm-1.7-24.8h-.8c-4.4.6-7.4 5.6-6.7 11.3.5 3.1 1.7 6 3.6 8.4 1.9 2.5 4.2 3.7 6.1 3.5 1.4-.3 2.7-1.1 3.5-2.3 2.1-2.8 3.3-7.7 2.8-11.7-.3-3-1.8-5.7-4.1-7.6-1.3-1-2.8-1.6-4.4-1.6z"/><path class="st2" d="M234.4 164.5c2.2 17.4 17.6 30.9 36.3 31 20.2 0 36.7-15.8 36.7-35.3 0-14.5.1-58 .1-58l-73.3-.1s0 20.5-.1 38.1"/><path class="st1" d="M270.8 196.2c-18.9-.1-34.8-13.6-37.1-31.6l1.5-.2c2.2 17.2 17.5 30.2 35.5 30.3h.1c19.8 0 35.8-15.5 35.9-34.5 0-13.4.1-51.4.1-57.2l-71.8-.1c0 3.8 0 21.8-.1 37.3h-1.5c0-17.6.1-38.1.1-38.1v-.8l74.8.1v.8s-.1 43.5-.1 58c-.1 19.9-16.8 36-37.4 36z"/><path class="st0" d="M262.4 109.2c18 21.1 45.3 24.5 45.3 24.5s5.7-7.1 5.7-21c-.1-23.8-16.8-36-44.9-36s-50.7 15.9-50.7 44c0 10.4-5 40.7 13.4 31.6 7.9-3 17-17.6 31.2-43.1zm-48.9 43.1s21.7 18.2 48.9-43.1"/><path class="st1" d="M221.7 155.6c-3.1.1-6.2-.9-8.7-2.7-.3-.3-.4-.8-.1-1.1s.8-.4 1.1-.1c0 0 4.4 3.6 11.5 1.9 8.4-2 21.4-11.3 36.2-44.7.2-.4.6-.5 1-.4.4.2.5.6.4 1-8.3 18.8-21.6 41.9-37.3 45.6-1.3.3-2.7.5-4.1.5z"/><path class="st3" d="M276.4 69.4h-.8c-31.1.8-56.1 25.8-57.1 56.9-.2 0-.5 27-6.3 37.1-8.4 14.4 1.7 19.4 1.4 29.1s-9.7 12-9.7 24.9c0 10 6 17.7 8.6 20.7L201 238s-9.9-9-9.9-21.9 9.4-15.2 9.7-24.9-9.8-14.7-1.4-29.1c5.8-10 6.1-37 6.3-37 1-32.4 28-57.9 60.4-56.9 3.4.1 6.9.5 10.3 1.2z"/><path class="st4" d="M211.2 239.1c-.2 0-.4-.1-.6-.2-2.6-2.9-8.8-10.8-8.8-21.2 0-7.2 2.9-11.3 5.5-14.9 2.1-3 4.1-5.8 4.2-10 .1-3.3-1.1-6-2.3-8.9-2.3-5.4-4.6-11 .9-20.6.2-.4.6-.5 1-.3s.5.6.3 1v.1c-5.2 8.9-3.1 13.9-.9 19.2 1.2 2.9 2.5 5.9 2.4 9.5-.1 4.7-2.2 7.7-4.5 10.9-2.6 3.6-5.2 7.3-5.2 14 0 9.9 5.9 17.4 8.4 20.1.3.3.3.8 0 1.1 0 .2-.2.3-.4.2z"/><path class="st3" d="M250.2 188.9l-1.3 8.8c5.5 3 16 8.9 38.4-6.4l.6-.4-.6.3c-3.3 1.7-20 9-37.1-2.3z"/><circle class="st4" cx="365.4" cy="195.2" r="8.8"/><circle class="st4" cx="83.8" cy="142.7" r="9.8"/><circle cx="432.3" cy="162.9" r="35" fill="#f8382f"/><path class="st1" d="M432.3 198.6c-19.7 0-35.8-16-35.8-35.7s16-35.8 35.7-35.8c19.7 0 35.8 16 35.8 35.7 0 19.8-16 35.8-35.7 35.8zm0-70c-18.9 0-34.3 15.3-34.3 34.3s15.3 34.3 34.3 34.3c18.9 0 34.3-15.3 34.3-34.3-.1-18.9-15.4-34.2-34.3-34.3zm-303.5 18.3h43.4v1.5h-43.4zm0 9.7h34.3v1.5h-34.3zm0 9.7h25.1v1.5h-25.1z"/><path class="st6" d="M43.9 326.7c-4.7-15.3 3.3-31.6 18.3-37.2 7.5-24.2 33.1-37.8 57.3-30.3 13.4 4.1 24.2 14.2 29.3 27.3h1.4c12.4 0 23.6 7.6 28.2 19.2 10.5-3.8 22.2 1.6 26 12.1.8 2.2 1.2 4.5 1.2 6.9 0 .6 0 1.1-.1 1.7 7.2.7 12.5 7.1 11.8 14.4-.6 6.7-6.3 11.9-13.1 11.9h-157c-7.3 0-13.2-5.9-13.2-13.1.1-6.1 4.1-11.3 9.9-12.9z"/><path class="st2" d="M174.9 287.9l-25 64.5c-4.7 12.2.3 26.1 10.9 29.8 9.3 3.3 19.4-2.4 23.5-13.2l30.1-80.8-39.5-.3z"/><path class="st1" d="M166.1 384c-1.9 0-3.8-.4-5.5-1-4.9-1.9-8.8-5.6-10.9-10.5-2.9-6.5-3-13.8-.4-20.4l25.1-65 41 .4-30.4 81.9c-3.4 8.9-11 14.6-18.9 14.6zm9.3-95.3l-24.8 64c-2.4 6.2-2.3 13.1.4 19.2 1.9 4.4 5.5 7.9 10 9.7 8.9 3.2 18.6-2.3 22.5-12.8l29.7-79.8-37.8-.3z"/><path class="st6" d="M497.5 328.6c5.9-19.1-4.1-39.5-22.9-46.6-9.3-30.3-41.4-47.3-71.7-38-16.8 5.2-30.3 17.7-36.6 34.1h-1.8c-15.6 0-29.5 9.5-35.3 24-2.8-1-5.7-1.5-8.7-1.5-14 0-25.4 11.4-25.4 25.4 0 .7 0 1.4.1 2.1-9.1.8-15.8 8.7-15 17.8.7 8.6 7.9 15.1 16.6 15.1h196.5c9.1 0 16.5-7.3 16.5-16.4-.1-7.5-5.1-14.1-12.3-16z"/><path class="st2" d="M361 292.6l7.2 18.9 37.4-85.6 21.5 7.6-41.3 111.9c-4.5 10.8-17.2 12.4-28.4 9.2-12.8-3.6-27.3-16.7-32.5-55.5l36.1-6.5z"/><path class="st1" d="M367.5 356.9c-3.5 0-6.9-.6-10.3-1.5-22-6.2-30.1-34-33-56.1l-.1-.7 37.4-6.7 6.8 17.8 37-84.6 22.9 8.1-41.6 112.6c-2.4 5.6-8.7 11.1-19.1 11.1zm-41.7-57.2c3 21.6 10.9 48.2 31.9 54.2 9.9 2.8 23 2.2 27.5-8.8l41-111.2-20.1-7.1-37.9 86.7-7.6-20-34.8 6.2z"/><path class="st2" d="M364.3 299.1c-5.4 3.1-19 8.5-36.7 6.9-1.8-.2-3.4 1.2-3.6 3v.5l.7 25.6.2 3.5h-119l.1-3.5.4-26.5c0-1.6-1-2.9-2.5-3.3-6-1.5-18.9-2-30.4-7.7-1.6-.8-3.1-1.6-4.6-2.6-1.2-.8-1.8-2.3-1.4-3.8l12.2-42.8c4.7-15.5 17-27.6 32.6-32.1l26.9-7.7 8.7-2.5c.7-.2 1.5-.2 2.2.2.4.1.7.3 1 .6 2 1.8 4.3 3.3 6.7 4.4 6.4 2.9 16.5 4.2 29-4.8.8-.6 1.9-.8 2.9-.5l33.7 10.1c16.7 5.1 29.4 18.9 33 36l9.5 43.4c.3 1.4-.4 2.9-1.6 3.6z"/><path class="st1" d="M325.7 339.3H205.1l.1-4.3.4-26.5c0-1.2-.8-2.3-2-2.6-1.6-.4-3.7-.7-6.2-1.1-6.7-1-15.9-2.5-24.4-6.7-1.6-.8-3.1-1.6-4.6-2.6-1.5-1-2.2-2.9-1.7-4.6l12.3-42.8c4.7-15.8 17.2-28.1 33.1-32.6l35.7-10.2c.9-.3 1.9-.2 2.8.2.4.2.8.4 1.1.7 1.9 1.8 4.1 3.2 6.5 4.3 6.1 2.8 15.9 4.2 28.3-4.7 1-.7 2.3-.9 3.5-.6l33.7 10.1c17 5.1 29.8 19.2 33.4 36.5l9.5 43.4c.4 1.7-.4 3.5-1.9 4.4-7.1 4.1-21.1 8.5-37.1 7-.7-.1-1.5.2-2 .7-.5.5-.8 1.2-.8 2l.7 25.6.2 4.4zm-119-1.5h117.4l-.1-2.7-.7-25.6c-.1-1.2.4-2.3 1.3-3.2.8-.8 2-1.2 3.2-1.1 15.7 1.5 29.3-2.7 36.2-6.8 1-.6 1.4-1.7 1.2-2.8l-9.5-43.3c-3.5-16.9-16-30.4-32.4-35.4l-33.7-10.1c-.8-.2-1.6-.1-2.2.4-13 9.3-23.3 7.8-29.8 4.9-2.5-1.2-4.9-2.7-6.9-4.6-.2-.2-.5-.4-.7-.5-.5-.2-1.2-.3-1.8-.1L212.5 217c-15.4 4.4-27.5 16.3-32.1 31.6l-12.2 42.8c-.3 1.1.1 2.3 1.1 2.9 1.4.9 2.9 1.8 4.5 2.5 8.3 4.1 17.3 5.5 23.9 6.5 2.5.4 4.6.7 6.3 1.1 1.9.5 3.2 2.2 3.1 4.1l-.4 29.3z"/><path class="st3" d="M257.8 211.3l-33.2 7.1c-18.3 3.9-32.9 17.4-38.3 35.3l-13 43.8c-1.6-.8-3.1-1.6-4.6-2.6-1.2-.8-1.8-2.3-1.4-3.8l12.2-42.8c4.7-15.5 17-27.6 32.6-32.1l26.9-7.7 11-2.3c.4.1.7.3 1 .6 2.2 1.9 4.4 3.4 6.8 4.5z"/><path d="M251.4 374.5h-.4c12.9-21.1 6.2-48.7-14.9-61.5-21.1-12.9-48.7-6.2-61.5 14.9-2.6 4.3-4.5 9-5.5 13.9-12.9-10-31.5-7.6-41.5 5.3-1.7 2.2-3.1 4.7-4.1 7.3-2.2-.8-4.5-1.2-6.8-1.2-10.9 0-19.8 8.9-19.7 19.8 0 .6 0 1.1.1 1.6-6.6.6-11.6 6.2-11.7 12.8 0 7.1 5.8 12.9 12.8 12.9h153.3c7.1 0 12.9-5.8 12.9-12.9-.1-7.1-5.8-12.8-13-12.9.1 0 0 0 0 0z" fill="#fe382f"/><path class="st1" d="M251.4 401H98.1c-7.5 0-13.6-6.1-13.6-13.6 0-6.7 4.9-12.4 11.6-13.4v-1c0-11.4 9.2-20.6 20.6-20.5 2.1 0 4.2.3 6.3 1 6.5-15.4 24.3-22.6 39.7-16.1 2.1.9 4 2 5.8 3.3 5.9-24.4 30.4-39.5 54.9-33.6s39.5 30.4 33.6 54.9c-1 4.2-2.6 8.3-4.8 12 7.5.5 13.2 7 12.7 14.5-.4 6.9-6.3 12.5-13.5 12.5zm-134.7-47.1c-10.5 0-19 8.6-19 19 0 .5 0 1 .1 1.6 0 .4-.3.8-.7.8-6.6.7-11.5 6.6-10.8 13.2.6 6.2 5.8 10.9 12 10.9h153.2c6.7 0 12.1-5.4 12.1-12.1s-5.4-12.1-12.1-12.1h-.5c-.4 0-.7-.3-.8-.7 0-.1 0-.3.1-.4 12.7-20.7 6.1-47.8-14.6-60.5-20.7-12.7-47.8-6.1-60.5 14.6-2.6 4.2-4.4 8.9-5.5 13.7-.1.4-.5.7-.9.6-.1 0-.2-.1-.3-.1-12.6-9.7-30.7-7.4-40.4 5.1-1.7 2.2-3 4.5-4 7.1-.1.4-.6.6-.9.5h-.1c-2-.8-4.2-1.2-6.4-1.2z"/><path d="M452.5 391.5c.1-.7.1-1.4.1-2.1 0-13.9-11.3-25.1-25.1-25.1-2.9 0-5.8.5-8.6 1.5-7.6-19.3-29.3-28.7-48.6-21.2-3.3 1.3-6.5 3.1-9.3 5.3-6.5-30.7-36.7-50.2-67.4-43.7s-50.2 36.7-43.7 67.4c1.3 6.3 3.7 12.3 7.1 17.8h-.5c-9 0-16.3 7.3-16.3 16.3s7.3 16.3 16.3 16.3H451c9 0 16.3-7.3 16.3-16.3 0-8.4-6.4-15.5-14.8-16.2z" fill="#0b3260"/><path class="st1" d="M451 424.7H256.6c-9.4.2-17.2-7.2-17.4-16.6-.2-9.4 7.2-17.2 16.6-17.4-16-27.5-6.7-62.7 20.8-78.6 27.5-16 62.7-6.7 78.6 20.8 2.9 4.9 5 10.2 6.3 15.8 17.1-12.4 41-8.6 53.4 8.4 1.8 2.4 3.2 5 4.4 7.8 13.6-4.5 28.2 2.9 32.7 16.5.9 2.6 1.3 5.3 1.3 8.1v1.4c9.4.6 16.5 8.7 15.8 18.1s-8.7 16.4-18.1 15.7zm-194.4-32.6c-8.6-.2-15.7 6.6-15.9 15.2-.2 8.6 6.6 15.7 15.2 15.9H451c8.6-.1 15.5-7.1 15.4-15.7-.1-7.9-6.1-14.5-14-15.3-.4 0-.7-.4-.7-.8.1-.8.1-1.4.1-2 0-13.5-10.9-24.4-24.4-24.4-2.8 0-5.7.5-8.3 1.5-.4.2-.8 0-1-.4-7.4-18.9-28.8-28.1-47.6-20.7-3.2 1.3-6.3 3-9 5.1-.2.2-.5.2-.7.1-.2-.1-.4-.3-.5-.5-6.5-30.2-36.2-49.5-66.5-43.1-30.2 6.5-49.5 36.2-43.1 66.5 1.3 6.2 3.7 12.1 7 17.5.2.3.1.8-.2 1-.1.1-.3.1-.4.1h-.5z"/><path class="st2" d="M368.1 311.6s-4.3 4.7-4.3 10.5"/><path class="st1" d="M364.6 322h-1.5c0-6 4.3-10.8 4.5-11l1.1 1s-4.1 4.6-4.1 10z"/><path class="st2" d="M405.6 225.9c1.6-7.2 8.7-11.7 15.9-10.2.6.1 1.1.3 1.7.5l11 .7s22.3 3.1 33.3-3.1c2.4-1.4 5.5-1.2 6.8 1.3 2.5 4.7-1.7 13.2-45.7 24l-3.7.6-5.8 16.4"/><path class="st1" d="M418.9 256.9h-.2c-.4-.1-.6-.6-.5-.9v-.1l5.8-16.4c.1-.3.3-.4.6-.5l3.7-.6c33.9-8.3 43.3-15.1 45.2-19.4.6-1.1.6-2.4 0-3.6-.4-.8-1.1-1.3-1.9-1.6-1.3-.3-2.7-.1-3.8.6-11.1 6.3-32.9 3.4-33.8 3.2l-10.9-.7h-.2c-6.5-2.4-13.7 1-16.1 7.5-.2.5-.3 1-.5 1.6-.1.4-.5.7-.9.6-.4-.1-.7-.5-.6-.9 1.7-7.6 9.2-12.4 16.8-10.7.6.1 1.1.3 1.6.5l10.9.7c.3 0 22.3 3 32.9-3 1.5-.9 3.3-1.2 5-.7 1.2.3 2.2 1.2 2.8 2.3.8 1.5.8 3.3.1 4.9-3 6.6-18.6 13.4-46.3 20.2l-3.4.6-5.7 16c0 .3-.3.4-.6.4z"/><path class="st4" d="M357.3 414.3h-65.1c-.4 0-.8-.3-.8-.8s.3-.8.8-.8h65.1c.4 0 .8.3.8.8s-.4.8-.8.8zm18.7 0h-8.6c-.4 0-.8-.3-.8-.8s.3-.8.8-.8h8.6c.4 0 .8.3.8.8s-.4.8-.8.8zm-142-21h-32.5c-.4 0-.8-.3-.8-.8s.3-.8.8-.8H234c.4 0 .8.3.8.8s-.4.8-.8.8zm-130.5-19.1h-.2c-.4-.1-.7-.5-.6-.9 1.1-5.3 3.4-9.2 7-11.5 3.6-2.1 7.8-2.8 11.8-1.9.4.1.6.5.6.9-.1.4-.5.7-.9.6 0 0-5.8-1.4-10.7 1.7-3.2 2-5.3 5.6-6.3 10.5-.1.4-.4.6-.7.6zm33.6-26.5c-.2 0-.4-.1-.6-.2-.3-.3-.3-.8 0-1.1 4.9-4.4 11.1-6 18-4.6 3.2.6 6.2 1.8 9 3.4.4.2.5.6.3 1s-.6.5-1 .3c0 0-.1 0-.1-.1-.1-.1-14.4-8.8-25.2 1-.1.2-.3.3-.4.3zm129.2 38.9c-.3 0-.5-.1-.7-.4-.2-.4-21.7-41.2 13-63.7.3-.2.8-.1 1 .2.2.3.1.8-.2 1-33.5 21.7-12.7 61.3-12.5 61.7.2.4 0 .8-.3 1-.1.2-.2.2-.3.2zm131.2-30.5c-.1 0-.3 0-.4-.1-9.3-5.6-20.9-5.8-30.5-.6-.4.2-.8 0-1-.3-.2-.3-.1-.7.2-1 .1-.1 15.3-9.4 32 .6.4.2.5.7.2 1-.1.3-.3.4-.5.4z"/><path d="M407 156.4h-.4c-.8-.2-1.3-1-1.1-1.8 2.5-9.5 9.9-16.9 19.4-19.4.8-.2 1.6.3 1.8 1.2s-.3 1.6-1.2 1.8c-8.4 2.2-14.9 8.8-17.1 17.2-.2.5-.7 1-1.4 1z" opacity=".4" fill="#fbe1ca"/><path class="st2" d="M423.5 174.3c-.2 0-.4 0-.6-.1l-14.7-7.6c-1-.6-1.6-1.7-1.5-2.9 0-1.1.6-2.1 1.5-2.7l14.7-7.7c.2-.1.4-.1.6-.1 1 .1 1.8 1 1.7 2 0 .8-.3 1.5-1 1.8l-13.6 6.8 13.6 6.7c.7.4 1 1.1 1 1.8.1 1.1-.7 2-1.7 2zm15.4-24.8l-8.6 29.9c-.2.8-.9 1.4-1.8 1.4-1 0-1.8-.9-1.8-2 0-.2 0-.4.1-.7l8.6-29.9c.2-.8.9-1.4 1.8-1.4 1 .1 1.8 1 1.8 2-.1.2-.1.5-.1.7zm18.6 17.1l-14.7 7.6c-.2.1-.4.1-.6.1-1-.1-1.8-1-1.7-2 0-.8.3-1.5 1-1.8l13.6-6.7-13.6-6.8c-.7-.4-1.1-1.1-1.1-1.8-.1-1 .7-1.9 1.7-2 .2 0 .4 0 .6.1l14.7 7.7c1 .6 1.6 1.6 1.5 2.7.2 1.2-.4 2.3-1.4 2.9z"/><circle cx="110.5" cy="218" r="14.6" fill="#f938f2"/><circle cx="110.5" cy="218" r="14.6" fill="#dd223d"/><path class="st1" d="M110.5 233.3c-8.5 0-15.3-6.8-15.3-15.3s6.8-15.3 15.3-15.3 15.3 6.8 15.3 15.3-6.8 15.3-15.3 15.3zm0-29.1c-7.6 0-13.8 6.2-13.8 13.8 0 7.6 6.2 13.8 13.8 13.8 7.6 0 13.8-6.2 13.8-13.8 0-7.6-6.2-13.8-13.8-13.8z"/><path class="st2" d="M122.9 226.4c1.1 1.1 15.7 10.7 15.7 10.7"/><path class="st1" d="M138.2 237.7c-1.5-1-14.7-9.7-15.8-10.8l1.1-1.1c.8.8 9.7 6.8 15.6 10.6l-.9 1.3z"/><path class="st4" d="M102 224.3c-.6 0-1.2-.4-1.4-1-.5-1.4-.8-2.8-.8-4.3 0-6.5 5.3-11.9 11.9-11.9.8 0 1.5.7 1.5 1.5s-.7 1.5-1.5 1.5c-4.9 0-8.9 4-8.9 8.9 0 1.1.2 2.2.6 3.2.3.8-.1 1.6-.9 1.9-.1.1-.3.1-.5.2z" opacity=".4"/><path class="st0" d="M261.3 107.4s21.7 31.3 49.9 25.2"/><path class="st1" d="M303.9 134.1c-24.7 0-43-26-43.2-26.3-.2-.3-.2-.8.2-1s.8-.2 1 .2c.2.3 21.7 30.9 49.1 24.9.4-.1.8.2.9.6.1.4-.2.8-.6.9-2.4.4-4.9.7-7.4.7z"/><path class="st4" d="M219.7 117.8h-.2c-.4-.1-.6-.5-.6-.9 3.8-15.3 11-25.2 16.4-30.7 3.2-3.4 6.9-6.3 11-8.6.4-.2.8 0 1 .4.2.4 0 .8-.4 1-.2.1-19.6 9.7-26.6 38.3 0 .2-.3.5-.6.5z"/></svg>