<?xml version="1.0" encoding="utf-8"?>
<!-- Generator: Adobe Illustrator 26.0.1, SVG Export Plug-In . SVG Version: 6.00 Build 0)  -->
<svg version="1.1" id="Layer_1" xmlns="http://www.w3.org/2000/svg" xmlns:xlink="http://www.w3.org/1999/xlink" x="0px" y="0px"
	 viewBox="0 0 550 500" style="enable-background:new 0 0 550 500;" xml:space="preserve">
<style type="text/css">
	.st0{fill:#FDAF4E;}
	.st1{fill:#24071D;}
	.st2{fill:#FFFFFF;}
	.st3{opacity:0.26;fill:#680000;enable-background:new    ;}
	.st4{fill:#FBE1CA;}
	.st5{fill:#F8382F;}
	.st6{fill:#404366;}
	.st7{fill:#FE382F;}
	.st8{fill:#0B3260;}
	.st9{opacity:0.4;fill:#FBE1CA;enable-background:new    ;}
	.st10{fill:#F938F2;}
	.st11{fill:#DD223D;}
	.st12{opacity:0.4;}
</style>
<path class="st0" d="M317.8,175.5c1.4-20.5,6-18.8,6-48.7c0-0.2,0-0.5,0-0.7s0-0.3,0-0.5c0-1,0-1.8,0-2.8
	c-2.3-32.3-30.3-56.7-62.7-54.5c-29.8,2.1-53.2,26.2-54.6,56c-0.2,0-0.8,27-6.8,37c-8.5,14.2,1.4,19.4,1.1,29.1s-9.8,11.8-10,24.8
	s9.6,22.1,9.6,22.1s118.2,1.1,118.2,1.1C342.7,207.1,316.3,196.9,317.8,175.5z"/>
<path class="st1" d="M315.4,239c-2.7,0-7.3,0-15.2-0.1c-11.1-0.1-25.9-0.2-40.6-0.4c-29.6-0.3-59.1-0.6-59.1-0.6
	c-0.2,0-0.4-0.1-0.5-0.2c-0.4-0.4-10-9.5-9.8-22.6c0.1-7.2,3.1-11.3,5.7-14.8c2.1-2.9,4.2-5.7,4.4-10c0.1-3.3-1-6-2.2-8.9
	c-2.2-5.4-4.5-11,1.2-20.5c3.3-5.5,5.5-17.2,6.5-34.9c0.1-0.8,0.1-1.3,0.1-1.7l0,0c1.4-32.8,29.2-58.2,62-56.8
	c30.2,1.3,54.6,25.1,56.7,55.3v2.9c0,0.1,0,0.1,0,0.2c0,0.1,0,0.2,0,0.3s0,0.3,0,0.4s0,0.2,0,0.3c0,17.7-1.6,24.5-3.2,31.1
	c-1.5,5.8-2.4,11.7-2.8,17.6l0,0c-0.5,7.4,2.4,13.3,5.4,19.6c5.5,11.4,11.1,23.1-4.7,43.6C319,238.9,319,239,315.4,239z
	 M200.7,236.5c6.4,0.1,110.7,1.1,117.5,1.1c15-19.6,9.8-30.3,4.3-41.7c-3-6.2-6-12.6-5.5-20.3c0.4-6,1.3-12,2.8-17.9
	c1.6-6.5,3.2-13.2,3.2-30.7c0-0.1,0-0.2,0-0.4s0-0.2,0-0.3s0-0.2,0-0.2c0-0.1,0-0.2,0-0.3v-2.8c-2.3-30.3-27.5-53.8-57.9-53.9h-0.8
	c-30.7,0.4-55.7,24.7-57.1,55.4v0.2c0,0.2-0.1,0.8-0.1,1.6c-1.1,17.9-3.3,29.9-6.8,35.6c-5.3,8.9-3.3,13.9-1.1,19.2
	c1.2,2.9,2.4,5.9,2.3,9.5c-0.2,4.7-2.4,7.7-4.6,10.8c-2.6,3.5-5.3,7.2-5.4,14C191.4,226.6,199.3,235.1,200.7,236.5L200.7,236.5z
	 M317.8,175.5L317.8,175.5z"/>
<path class="st1" d="M242.4,235.2c-1.4-3.1-3.2-5.9-5.4-8.4c-2.7-3.4-5.2-6.6-6-11c-0.6-3.5-0.3-7,1.1-10.3c0.7-1.4,1.6-2.8,2.7-4
	c1.1-1.2,2-2.6,2.8-4.1c2.5-4.9,0.6-8.9-1.3-12.9l-0.1-0.1c-1.1-2.1-1.9-4.3-2.3-6.6c-0.5-4.1,1.1-7.9,2.8-12
	c1.3-2.7,2.2-5.6,2.8-8.5c1-6.3,1.4-12.7,1.5-19.1c0.1-4.6,0.3-9.4,0.8-14.2l1.5,0.2c-0.5,4.6-0.6,9.4-0.8,14
	c0,6.5-0.5,12.9-1.5,19.3c-0.6,3-1.6,6-2.9,8.8c-1.6,3.9-3.1,7.6-2.7,11.3c0.4,2.1,1.1,4.2,2.1,6.1v0.1c1.8,3.9,4.1,8.7,1.3,14.2
	c-0.8,1.5-1.8,3-3,4.3c-1,1.1-1.8,2.3-2.5,3.7c-1.2,3-1.6,6.2-1,9.4c0.7,4,3.1,7.1,5.7,10.3c2.3,2.7,4.2,5.6,5.6,8.8L242.4,235.2z"
	/>
<path class="st1" d="M222.5,237.9c-11.7-12.4-11.2-21.6-9.8-27.5c0.5-2,1.2-4,2-6l0.1-0.2c1.1-2.7,2-5.5,2.6-8.3
	c0.8-4.6-0.5-8.6-1.8-12.5l-0.6-2c-1.8-5.9-0.3-11,1.3-16.4c1-3.2,1.8-6.5,2.2-9.9c0.4-5.2,0.3-10.4-0.1-15.6
	c-0.5-5.1-0.5-10.3-0.1-15.4c1.1-10.1,6.6-17.9,12.4-26.2l2.3-3.3l1.2,0.9l-2.4,3.3c-5.7,8.1-11.1,15.8-12.1,25.5
	c-0.4,5.1-0.3,10.1,0.1,15.2c0.5,5.3,0.5,10.5,0.1,15.8c-0.4,3.4-1.2,6.8-2.2,10.1c-1.5,5.2-2.9,10.1-1.3,15.5l0.6,2
	c1.3,4.1,2.6,8.3,1.8,13.2c-0.6,3-1.5,5.8-2.6,8.6l-0.1,0.2c-0.8,1.9-1.4,3.8-2,5.8c-2.2,8.9,0.7,17,9.4,26.1L222.5,237.9z"/>
<path class="st1" d="M302.9,238.1c-0.6-4.2-1.2-8.6-0.2-12.6c0.5-1.7,1.1-3.3,2-4.9l0.1-0.1c0.5-1,1.1-2.1,1.6-3.2
	c4.8-11.6,2-21.4-1.1-32.6l-0.3-1.1c-2.2-7.9-4.1-14.7-4-22.8c0.2-14.2,1.3-28.3,3.3-42.4l1.5,0.2c-2,14-3,28.1-3.3,42.2
	c-0.1,7.9,1.8,14.6,3.9,22.3l0.3,1.1c3.2,11.6,6,21.5,1,33.6c-0.5,1.2-1.1,2.3-1.6,3.4l-0.1,0.1c-0.8,1.4-1.5,3-1.9,4.5
	c-0.9,3.7-0.3,7.9,0.3,12L302.9,238.1z"/>
<polygon class="st2" points="287.4,216.1 248.3,216.5 249.5,180.5 284.8,180.5 "/>
<path class="st1" d="M247.6,217.2l1.2-37.4l36.8-0.1l2.6,37.2L247.6,217.2z M250.2,181.3l-1.1,34.4l37.4-0.3l-2.4-34.2L250.2,181.3z
	"/>
<path class="st2" d="M241.2,149.8c0.8,6.1-2.1,14.2-6.9,14.8s-9.8-6.5-10.6-12.5s2.5-11.5,7.4-12.1S240.5,143.7,241.2,149.8z"/>
<path class="st1" d="M233.7,165.4c-2.3,0-4.7-1.4-6.8-4.1c-2.1-2.7-3.4-5.8-3.9-9.1c-0.8-6.5,2.8-12.3,8-12.9
	c2.3-0.3,4.6,0.4,6.4,1.8c2.6,2.2,4.3,5.3,4.7,8.6c0.6,4.4-0.7,9.7-3.1,12.8c-1.1,1.5-2.7,2.6-4.5,2.9
	C234.2,165.3,233.9,165.3,233.7,165.4z M232,140.6c-0.3,0-0.6,0-0.8,0c-4.4,0.6-7.4,5.6-6.7,11.3c0.5,3.1,1.7,6,3.6,8.4
	c1.9,2.5,4.2,3.7,6.1,3.5c1.4-0.3,2.7-1.1,3.5-2.3c2.1-2.8,3.3-7.7,2.8-11.7l0,0c-0.3-3-1.8-5.7-4.1-7.6
	C235.1,141.2,233.6,140.6,232,140.6z"/>
<path class="st2" d="M234.4,164.5c2.2,17.4,17.6,30.9,36.3,31c20.2,0,36.7-15.8,36.7-35.3c0-14.5,0.1-58,0.1-58l-73.3-0.1
	c0,0,0,20.5-0.1,38.1"/>
<path class="st1" d="M270.8,196.2L270.8,196.2c-18.9-0.1-34.8-13.6-37.1-31.6l1.5-0.2c2.2,17.2,17.5,30.2,35.5,30.3h0.1
	c19.8,0,35.8-15.5,35.9-34.5c0-13.4,0.1-51.4,0.1-57.2l-71.8-0.1c0,3.8,0,21.8-0.1,37.3h-1.5c0-17.6,0.1-38.1,0.1-38.1v-0.8
	l74.8,0.1v0.8c0,0-0.1,43.5-0.1,58C308.1,180.1,291.4,196.2,270.8,196.2z"/>
<path class="st0" d="M262.4,109.2c18,21.1,45.3,24.5,45.3,24.5s5.7-7.1,5.7-21c-0.1-23.8-16.8-36-44.9-36s-50.7,15.9-50.7,44
	c0,10.4-5,40.7,13.4,31.6C239.1,149.3,248.2,134.7,262.4,109.2z"/>
<path class="st0" d="M213.5,152.3c0,0,21.7,18.2,48.9-43.1"/>
<path class="st1" d="M221.7,155.6c-3.1,0.1-6.2-0.9-8.7-2.7c-0.3-0.3-0.4-0.8-0.1-1.1s0.8-0.4,1.1-0.1l0,0c0,0,4.4,3.6,11.5,1.9
	c8.4-2,21.4-11.3,36.2-44.7c0.2-0.4,0.6-0.5,1-0.4c0.4,0.2,0.5,0.6,0.4,1c-8.3,18.8-21.6,41.9-37.3,45.6
	C224.5,155.4,223.1,155.6,221.7,155.6z"/>
<path class="st3" d="M276.4,69.4c-0.2,0-0.5,0-0.8,0c-31.1,0.8-56.1,25.8-57.1,56.9c-0.2,0-0.5,27-6.3,37.1
	c-8.4,14.4,1.7,19.4,1.4,29.1s-9.7,12-9.7,24.9c0,10,6,17.7,8.6,20.7L201,238c0,0-9.9-9-9.9-21.9s9.4-15.2,9.7-24.9
	s-9.8-14.7-1.4-29.1c5.8-10,6.1-37,6.3-37c1-32.4,28-57.9,60.4-56.9C269.5,68.3,273,68.7,276.4,69.4z"/>
<path class="st4" d="M211.2,239.1c-0.2,0-0.4-0.1-0.6-0.2c-2.6-2.9-8.8-10.8-8.8-21.2c0-7.2,2.9-11.3,5.5-14.9c2.1-3,4.1-5.8,4.2-10
	c0.1-3.3-1.1-6-2.3-8.9c-2.3-5.4-4.6-11,0.9-20.6c0.2-0.4,0.6-0.5,1-0.3c0.4,0.2,0.5,0.6,0.3,1c0,0,0,0.1,0,0.1
	c-5.2,8.9-3.1,13.9-0.9,19.2c1.2,2.9,2.5,5.9,2.4,9.5c-0.1,4.7-2.2,7.7-4.5,10.9c-2.6,3.6-5.2,7.3-5.2,14c0,9.9,5.9,17.4,8.4,20.1
	c0.3,0.3,0.3,0.8,0,1.1C211.6,239.1,211.4,239.2,211.2,239.1z"/>
<path class="st3" d="M250.2,188.9l-1.3,8.8c5.5,3,16,8.9,38.4-6.4l0.6-0.4l-0.6,0.3C284,192.9,267.3,200.2,250.2,188.9z"/>
<circle class="st4" cx="365.4" cy="195.2" r="8.8"/>
<circle class="st4" cx="83.8" cy="142.7" r="9.8"/>
<circle class="st5" cx="432.3" cy="162.9" r="35"/>
<path class="st1" d="M432.3,198.6c-19.7,0-35.8-16-35.8-35.7s16-35.8,35.7-35.8c19.7,0,35.8,16,35.8,35.7c0,0,0,0,0,0
	C468,182.6,452,198.6,432.3,198.6z M432.3,128.6c-18.9,0-34.3,15.3-34.3,34.3s15.3,34.3,34.3,34.3c18.9,0,34.3-15.3,34.3-34.3
	C466.5,144,451.2,128.7,432.3,128.6L432.3,128.6z"/>
<rect x="128.8" y="146.9" class="st1" width="43.4" height="1.5"/>
<rect x="128.8" y="156.6" class="st1" width="34.3" height="1.5"/>
<rect x="128.8" y="166.3" class="st1" width="25.1" height="1.5"/>
<path class="st6" d="M43.9,326.7c-4.7-15.3,3.3-31.6,18.3-37.2c7.5-24.2,33.1-37.8,57.3-30.3c13.4,4.1,24.2,14.2,29.3,27.3h1.4
	c12.4,0,23.6,7.6,28.2,19.2c10.5-3.8,22.2,1.6,26,12.1c0.8,2.2,1.2,4.5,1.2,6.9c0,0.6,0,1.1-0.1,1.7c7.2,0.7,12.5,7.1,11.8,14.4
	c-0.6,6.7-6.3,11.9-13.1,11.9h-157c-7.3,0-13.2-5.9-13.2-13.1C34.1,333.5,38.1,328.3,43.9,326.7L43.9,326.7z"/>
<path class="st2" d="M174.9,287.9l-25,64.5c-4.7,12.2,0.3,26.1,10.9,29.8l0,0c9.3,3.3,19.4-2.4,23.5-13.2l30.1-80.8L174.9,287.9z"/>
<path class="st1" d="M166.1,384c-1.9,0-3.8-0.4-5.5-1c-4.9-1.9-8.8-5.6-10.9-10.5c-2.9-6.5-3-13.8-0.4-20.4l25.1-65l41,0.4
	L185,369.4C181.6,378.3,174,384,166.1,384z M175.4,288.7l-24.8,64c-2.4,6.2-2.3,13.1,0.4,19.2c1.9,4.4,5.5,7.9,10,9.7
	c8.9,3.2,18.6-2.3,22.5-12.8l29.7-79.8L175.4,288.7z"/>
<path class="st6" d="M497.5,328.6c5.9-19.1-4.1-39.5-22.9-46.6c-9.3-30.3-41.4-47.3-71.7-38c-16.8,5.2-30.3,17.7-36.6,34.1
	c-0.6,0-1.2,0-1.8,0c-15.6,0-29.5,9.5-35.3,24c-2.8-1-5.7-1.5-8.7-1.5c-14,0-25.4,11.4-25.4,25.4c0,0,0,0,0,0c0,0.7,0,1.4,0.1,2.1
	c-9.1,0.8-15.8,8.7-15,17.8c0.7,8.6,7.9,15.1,16.6,15.1h196.5c9.1,0,16.5-7.3,16.5-16.4C509.7,337.1,504.7,330.5,497.5,328.6
	L497.5,328.6z"/>
<path class="st2" d="M361,292.6l7.2,18.9l37.4-85.6l21.5,7.6l-41.3,111.9c-4.5,10.8-17.2,12.4-28.4,9.2
	c-12.8-3.6-27.3-16.7-32.5-55.5L361,292.6z"/>
<path class="st1" d="M367.5,356.9c-3.5,0-6.9-0.6-10.3-1.5c-22-6.2-30.1-34-33-56.1l-0.1-0.7l37.4-6.7l6.8,17.8l37-84.6l22.9,8.1
	l-41.6,112.6C384.2,351.4,377.9,356.9,367.5,356.9z M325.8,299.7c3,21.6,10.9,48.2,31.9,54.2c9.9,2.8,23,2.2,27.5-8.8l41-111.2
	l-20.1-7.1l-37.9,86.7l-7.6-20L325.8,299.7z"/>
<path class="st2" d="M364.3,299.1c-5.4,3.1-19,8.5-36.7,6.9c-1.8-0.2-3.4,1.2-3.6,3c0,0.2,0,0.3,0,0.5l0.7,25.6l0.2,3.5h-119
	l0.1-3.5l0.4-26.5c0-1.6-1-2.9-2.5-3.3c-6-1.5-18.9-2-30.4-7.7c-1.6-0.8-3.1-1.6-4.6-2.6c-1.2-0.8-1.8-2.3-1.4-3.8l12.2-42.8
	c4.7-15.5,17-27.6,32.6-32.1l26.9-7.7l8.7-2.5c0.7-0.2,1.5-0.2,2.2,0.2c0.4,0.1,0.7,0.3,1,0.6c2,1.8,4.3,3.3,6.7,4.4
	c6.4,2.9,16.5,4.2,29-4.8c0.8-0.6,1.9-0.8,2.9-0.5l33.7,10.1c16.7,5.1,29.4,18.9,33,36l9.5,43.4
	C366.2,296.9,365.5,298.4,364.3,299.1z"/>
<path class="st1" d="M325.7,339.3H205.1l0.1-4.3l0.4-26.5c0-1.2-0.8-2.3-2-2.6c-1.6-0.4-3.7-0.7-6.2-1.1c-6.7-1-15.9-2.5-24.4-6.7
	c-1.6-0.8-3.1-1.6-4.6-2.6c-1.5-1-2.2-2.9-1.7-4.6l12.3-42.8c4.7-15.8,17.2-28.1,33.1-32.6l35.7-10.2c0.9-0.3,1.9-0.2,2.8,0.2
	c0.4,0.2,0.8,0.4,1.1,0.7c1.9,1.8,4.1,3.2,6.5,4.3c6.1,2.8,15.9,4.2,28.3-4.7c1-0.7,2.3-0.9,3.5-0.6l33.7,10.1
	c17,5.1,29.8,19.2,33.4,36.5l9.5,43.4c0.4,1.7-0.4,3.5-1.9,4.4c-7.1,4.1-21.1,8.5-37.1,7c-0.7-0.1-1.5,0.2-2,0.7
	c-0.5,0.5-0.8,1.2-0.8,2l0.7,25.6L325.7,339.3z M206.7,337.8h117.4l-0.1-2.7l-0.7-25.6c-0.1-1.2,0.4-2.3,1.3-3.2
	c0.8-0.8,2-1.2,3.2-1.1c15.7,1.5,29.3-2.7,36.2-6.8c1-0.6,1.4-1.7,1.2-2.8l-9.5-43.3c-3.5-16.9-16-30.4-32.4-35.4l-33.7-10.1
	c-0.8-0.2-1.6-0.1-2.2,0.4c-13,9.3-23.3,7.8-29.8,4.9c-2.5-1.2-4.9-2.7-6.9-4.6c-0.2-0.2-0.5-0.4-0.7-0.5c-0.5-0.2-1.2-0.3-1.8-0.1
	L212.5,217c-15.4,4.4-27.5,16.3-32.1,31.6l-12.2,42.8c-0.3,1.1,0.1,2.3,1.1,2.9c1.4,0.9,2.9,1.8,4.5,2.5c8.3,4.1,17.3,5.5,23.9,6.5
	c2.5,0.4,4.6,0.7,6.3,1.1c1.9,0.5,3.2,2.2,3.1,4.1L206.7,337.8z"/>
<path class="st3" d="M257.8,211.3l-33.2,7.1c-18.3,3.9-32.9,17.4-38.3,35.3l-13,43.8c-1.6-0.8-3.1-1.6-4.6-2.6
	c-1.2-0.8-1.8-2.3-1.4-3.8l12.2-42.8c4.7-15.5,17-27.6,32.6-32.1l26.9-7.7l11-2.3c0.4,0.1,0.7,0.3,1,0.6
	C253.2,208.7,255.4,210.2,257.8,211.3z"/>
<path class="st7" d="M251.4,374.5H251c12.9-21.1,6.2-48.7-14.9-61.5c-21.1-12.9-48.7-6.2-61.5,14.9c-2.6,4.3-4.5,9-5.5,13.9
	c-12.9-10-31.5-7.6-41.5,5.3c-1.7,2.2-3.1,4.7-4.1,7.3c-2.2-0.8-4.5-1.2-6.8-1.2c-10.9,0-19.8,8.9-19.7,19.8c0,0,0,0,0,0
	c0,0.6,0,1.1,0.1,1.6c-6.6,0.6-11.6,6.2-11.7,12.8l0,0c0,7.1,5.8,12.9,12.8,12.9l0,0h153.3c7.1,0,12.9-5.8,12.9-12.9l0,0l0,0
	C264.3,380.3,258.6,374.6,251.4,374.5C251.5,374.5,251.4,374.5,251.4,374.5z"/>
<path class="st1" d="M251.4,401H98.1c-7.5,0-13.6-6.1-13.6-13.6c0-6.7,4.9-12.4,11.6-13.4c0-0.3,0-0.7,0-1
	c0-11.4,9.2-20.6,20.6-20.5c2.1,0,4.2,0.3,6.3,1c6.5-15.4,24.3-22.6,39.7-16.1c2.1,0.9,4,2,5.8,3.3c5.9-24.4,30.4-39.5,54.9-33.6
	s39.5,30.4,33.6,54.9c-1,4.2-2.6,8.3-4.8,12c7.5,0.5,13.2,7,12.7,14.5C264.5,395.4,258.6,401,251.4,401L251.4,401z M116.7,353.9
	c-10.5,0-19,8.6-19,19c0,0.5,0,1,0.1,1.6c0,0.4-0.3,0.8-0.7,0.8c-6.6,0.7-11.5,6.6-10.8,13.2c0.6,6.2,5.8,10.9,12,10.9h153.2
	c6.7,0,12.1-5.4,12.1-12.1s-5.4-12.1-12.1-12.1H251c-0.4,0-0.7-0.3-0.8-0.7c0-0.1,0-0.3,0.1-0.4c12.7-20.7,6.1-47.8-14.6-60.5
	c-20.7-12.7-47.8-6.1-60.5,14.6c-2.6,4.2-4.4,8.9-5.5,13.7c-0.1,0.4-0.5,0.7-0.9,0.6c-0.1,0-0.2-0.1-0.3-0.1
	c-12.6-9.7-30.7-7.4-40.4,5.1c-1.7,2.2-3,4.5-4,7.1c-0.1,0.4-0.6,0.6-0.9,0.5c0,0,0,0-0.1,0C121.1,354.3,118.9,353.9,116.7,353.9z"
	/>
<path class="st8" d="M452.5,391.5c0.1-0.7,0.1-1.4,0.1-2.1c0-13.9-11.3-25.1-25.1-25.1c-2.9,0-5.8,0.5-8.6,1.5
	c-7.6-19.3-29.3-28.7-48.6-21.2c-3.3,1.3-6.5,3.1-9.3,5.3c-6.5-30.7-36.7-50.2-67.4-43.7s-50.2,36.7-43.7,67.4
	c1.3,6.3,3.7,12.3,7.1,17.8h-0.5c-9,0-16.3,7.3-16.3,16.3l0,0c0,9,7.3,16.3,16.3,16.3c0,0,0,0,0.1,0H451c9,0,16.3-7.3,16.3-16.3l0,0
	l0,0C467.3,399.3,460.9,392.2,452.5,391.5z"/>
<path class="st1" d="M451,424.7H256.6c-9.4,0.2-17.2-7.2-17.4-16.6c-0.2-9.4,7.2-17.2,16.6-17.4c-16-27.5-6.7-62.7,20.8-78.6
	c27.5-16,62.7-6.7,78.6,20.8c2.9,4.9,5,10.2,6.3,15.8c17.1-12.4,41-8.6,53.4,8.4c1.8,2.4,3.2,5,4.4,7.8c13.6-4.5,28.2,2.9,32.7,16.5
	c0.9,2.6,1.3,5.3,1.3,8.1c0,0.5,0,0.9,0,1.4c9.4,0.6,16.5,8.7,15.8,18.1S460.4,425.4,451,424.7z M256.6,392.1
	c-8.6-0.2-15.7,6.6-15.9,15.2c-0.2,8.6,6.6,15.7,15.2,15.9c0.3,0,0.5,0,0.8,0H451c8.6-0.1,15.5-7.1,15.4-15.7
	c-0.1-7.9-6.1-14.5-14-15.3c-0.4,0-0.7-0.4-0.7-0.8c0,0,0,0,0,0c0.1-0.8,0.1-1.4,0.1-2c0-13.5-10.9-24.4-24.4-24.4
	c-2.8,0-5.7,0.5-8.3,1.5c-0.4,0.2-0.8,0-1-0.4c0,0,0,0,0,0c-7.4-18.9-28.8-28.1-47.6-20.7c-3.2,1.3-6.3,3-9,5.1
	c-0.2,0.2-0.5,0.2-0.7,0.1c-0.2-0.1-0.4-0.3-0.5-0.5c-6.5-30.2-36.2-49.5-66.5-43.1c-30.2,6.5-49.5,36.2-43.1,66.5
	c1.3,6.2,3.7,12.1,7,17.5c0.2,0.3,0.1,0.8-0.2,1c-0.1,0.1-0.3,0.1-0.4,0.1H256.6z"/>
<path class="st2" d="M368.1,311.6c0,0-4.3,4.7-4.3,10.5"/>
<path class="st1" d="M364.6,322h-1.5c0-6,4.3-10.8,4.5-11l1.1,1C368.7,312,364.6,316.6,364.6,322z"/>
<path class="st2" d="M405.6,225.9c1.6-7.2,8.7-11.7,15.9-10.2c0.6,0.1,1.1,0.3,1.7,0.5l11,0.7c0,0,22.3,3.1,33.3-3.1
	c2.4-1.4,5.5-1.2,6.8,1.3c2.5,4.7-1.7,13.2-45.7,24l-3.7,0.6l-5.8,16.4"/>
<path class="st1" d="M418.9,256.9c-0.1,0-0.2,0-0.2,0c-0.4-0.1-0.6-0.6-0.5-0.9c0,0,0,0,0-0.1l5.8-16.4c0.1-0.3,0.3-0.4,0.6-0.5
	l3.7-0.6c33.9-8.3,43.3-15.1,45.2-19.4c0.6-1.1,0.6-2.4,0-3.6c-0.4-0.8-1.1-1.3-1.9-1.6c-1.3-0.3-2.7-0.1-3.8,0.6
	c-11.1,6.3-32.9,3.4-33.8,3.2l-10.9-0.7h-0.2c-6.5-2.4-13.7,1-16.1,7.5c-0.2,0.5-0.3,1-0.5,1.6c-0.1,0.4-0.5,0.7-0.9,0.6
	c0,0,0,0,0,0c-0.4-0.1-0.7-0.5-0.6-0.9c0,0,0,0,0,0c1.7-7.6,9.2-12.4,16.8-10.7c0.6,0.1,1.1,0.3,1.6,0.5l10.9,0.7
	c0.3,0,22.3,3,32.9-3c1.5-0.9,3.3-1.2,5-0.7c1.2,0.3,2.2,1.2,2.8,2.3c0.8,1.5,0.8,3.3,0.1,4.9c-3,6.6-18.6,13.4-46.3,20.2l-3.4,0.6
	l-5.7,16C419.5,256.8,419.2,256.9,418.9,256.9z"/>
<path class="st4" d="M357.3,414.3h-65.1c-0.4,0-0.8-0.3-0.8-0.8s0.3-0.8,0.8-0.8h65.1c0.4,0,0.8,0.3,0.8,0.8
	S357.7,414.3,357.3,414.3z"/>
<path class="st4" d="M376,414.3h-8.6c-0.4,0-0.8-0.3-0.8-0.8s0.3-0.8,0.8-0.8h8.6c0.4,0,0.8,0.3,0.8,0.8S376.4,414.3,376,414.3z"/>
<path class="st4" d="M234,393.3h-32.5c-0.4,0-0.8-0.3-0.8-0.8s0.3-0.8,0.8-0.8H234c0.4,0,0.8,0.3,0.8,0.8S234.4,393.3,234,393.3z"/>
<path class="st4" d="M103.5,374.2h-0.2c-0.4-0.1-0.7-0.5-0.6-0.9c0,0,0,0,0,0c1.1-5.3,3.4-9.2,7-11.5c3.6-2.1,7.8-2.8,11.8-1.9
	c0.4,0.1,0.6,0.5,0.6,0.9c-0.1,0.4-0.5,0.7-0.9,0.6c0,0-5.8-1.4-10.7,1.7c-3.2,2-5.3,5.6-6.3,10.5
	C104.1,374,103.8,374.2,103.5,374.2z"/>
<path class="st4" d="M137.1,347.7c-0.2,0-0.4-0.1-0.6-0.2c-0.3-0.3-0.3-0.8,0-1.1c4.9-4.4,11.1-6,18-4.6c3.2,0.6,6.2,1.8,9,3.4
	c0.4,0.2,0.5,0.6,0.3,1c-0.2,0.4-0.6,0.5-1,0.3c0,0-0.1,0-0.1-0.1c-0.1-0.1-14.4-8.8-25.2,1C137.4,347.6,137.2,347.7,137.1,347.7z"
	/>
<path class="st4" d="M266.3,386.6c-0.3,0-0.5-0.1-0.7-0.4c-0.2-0.4-21.7-41.2,13-63.7c0.3-0.2,0.8-0.1,1,0.2c0.2,0.3,0.1,0.8-0.2,1
	c-33.5,21.7-12.7,61.3-12.5,61.7c0.2,0.4,0,0.8-0.3,1C266.5,386.6,266.4,386.6,266.3,386.6z"/>
<path class="st4" d="M397.5,356.1c-0.1,0-0.3,0-0.4-0.1c-9.3-5.6-20.9-5.8-30.5-0.6c-0.4,0.2-0.8,0-1-0.3c-0.2-0.3-0.1-0.7,0.2-1
	c0.1-0.1,15.3-9.4,32,0.6c0.4,0.2,0.5,0.7,0.2,1C397.9,356,397.7,356.1,397.5,356.1L397.5,356.1z"/>
<path class="st9" d="M407,156.4c-0.1,0-0.3,0-0.4,0c-0.8-0.2-1.3-1-1.1-1.8c0,0,0,0,0,0c2.5-9.5,9.9-16.9,19.4-19.4
	c0.8-0.2,1.6,0.3,1.8,1.2s-0.3,1.6-1.2,1.8l0,0c-8.4,2.2-14.9,8.8-17.1,17.2C408.2,155.9,407.7,156.4,407,156.4z"/>
<path class="st2" d="M423.5,174.3c-0.2,0-0.4,0-0.6-0.1l-14.7-7.6c-1-0.6-1.6-1.7-1.5-2.9c0-1.1,0.6-2.1,1.5-2.7l14.7-7.7
	c0.2-0.1,0.4-0.1,0.6-0.1c1,0.1,1.8,1,1.7,2c0,0.8-0.3,1.5-1,1.8l-13.6,6.8l13.6,6.7c0.7,0.4,1,1.1,1,1.8
	C425.3,173.4,424.5,174.3,423.5,174.3z"/>
<path class="st2" d="M438.9,149.5l-8.6,29.9c-0.2,0.8-0.9,1.4-1.8,1.4c-1,0-1.8-0.9-1.8-2c0,0,0,0,0,0c0-0.2,0-0.4,0.1-0.7l8.6-29.9
	c0.2-0.8,0.9-1.4,1.8-1.4c1,0.1,1.8,1,1.8,2C438.9,149,438.9,149.3,438.9,149.5z"/>
<path class="st2" d="M457.5,166.6l-14.7,7.6c-0.2,0.1-0.4,0.1-0.6,0.1c-1-0.1-1.8-1-1.7-2c0,0,0,0,0,0c0-0.8,0.3-1.5,1-1.8l13.6-6.7
	l-13.6-6.8c-0.7-0.4-1.1-1.1-1.1-1.8c-0.1-1,0.7-1.9,1.7-2c0,0,0,0,0,0c0.2,0,0.4,0,0.6,0.1l14.7,7.7c1,0.6,1.6,1.6,1.5,2.7
	C459.1,164.9,458.5,166,457.5,166.6z"/>
<circle class="st10" cx="110.5" cy="218" r="14.6"/>
<circle class="st11" cx="110.5" cy="218" r="14.6"/>
<path class="st1" d="M110.5,233.3c-8.5,0-15.3-6.8-15.3-15.3s6.8-15.3,15.3-15.3c8.5,0,15.3,6.8,15.3,15.3
	C125.8,226.5,119,233.3,110.5,233.3z M110.5,204.2c-7.6,0-13.8,6.2-13.8,13.8c0,7.6,6.2,13.8,13.8,13.8c7.6,0,13.8-6.2,13.8-13.8
	c0,0,0,0,0,0C124.3,210.4,118.1,204.2,110.5,204.2z"/>
<path class="st2" d="M122.9,226.4c1.1,1.1,15.7,10.7,15.7,10.7"/>
<path class="st1" d="M138.2,237.7c-1.5-1-14.7-9.7-15.8-10.8l1.1-1.1c0.8,0.8,9.7,6.8,15.6,10.6L138.2,237.7z"/>
<g class="st12">
	<path class="st4" d="M102,224.3c-0.6,0-1.2-0.4-1.4-1c-0.5-1.4-0.8-2.8-0.8-4.3c0-6.5,5.3-11.9,11.9-11.9c0.8,0,1.5,0.7,1.5,1.5
		s-0.7,1.5-1.5,1.5c-4.9,0-8.9,4-8.9,8.9c0,1.1,0.2,2.2,0.6,3.2c0.3,0.8-0.1,1.6-0.9,1.9C102.4,224.2,102.2,224.2,102,224.3z"/>
</g>
<path class="st0" d="M261.3,107.4c0,0,21.7,31.3,49.9,25.2"/>
<path class="st1" d="M303.9,134.1c-24.7,0-43-26-43.2-26.3c-0.2-0.3-0.2-0.8,0.2-1s0.8-0.2,1,0.2c0.2,0.3,21.7,30.9,49.1,24.9
	c0.4-0.1,0.8,0.2,0.9,0.6c0.1,0.4-0.2,0.8-0.6,0.9c0,0,0,0,0,0C308.9,133.8,306.4,134.1,303.9,134.1z"/>
<path class="st4" d="M219.7,117.8c-0.1,0-0.1,0-0.2,0c-0.4-0.1-0.6-0.5-0.6-0.9c0,0,0,0,0,0c3.8-15.3,11-25.2,16.4-30.7
	c3.2-3.4,6.9-6.3,11-8.6c0.4-0.2,0.8,0,1,0.4c0.2,0.4,0,0.8-0.4,1c-0.2,0.1-19.6,9.7-26.6,38.3C220.3,117.5,220,117.8,219.7,117.8z"
	/>
</svg>
